<mxfile host="65bd71144e">
    <diagram id="HHGlTL7xAsRL5ZrtgO9h" name="Page-1">
        <mxGraphModel dx="1120" dy="2410" grid="1" gridSize="10" guides="1" tooltips="1" connect="1" arrows="1" fold="1" page="1" pageScale="1" pageWidth="850" pageHeight="1100" math="0" shadow="0">
            <root>
                <mxCell id="0"/>
                <mxCell id="1" parent="0"/>
                <mxCell id="67" style="edgeStyle=none;html=1;" edge="1" parent="1" source="62" target="68">
                    <mxGeometry relative="1" as="geometry">
                        <mxPoint x="-25.000000000000227" y="420" as="targetPoint"/>
                    </mxGeometry>
                </mxCell>
                <mxCell id="62" value="" style="whiteSpace=wrap;html=1;aspect=fixed;container=1;" vertex="1" parent="1">
                    <mxGeometry x="-120" y="110" width="190" height="190" as="geometry"/>
                </mxCell>
                <mxCell id="63" value="Client" style="text;html=1;align=center;verticalAlign=middle;whiteSpace=wrap;rounded=0;" vertex="1" parent="62">
                    <mxGeometry x="54.28571428571429" width="61.07142857142858" height="27.142857142857146" as="geometry"/>
                </mxCell>
                <mxCell id="64" value="" style="rounded=0;whiteSpace=wrap;html=1;" vertex="1" parent="62">
                    <mxGeometry x="14.5" y="50" width="161" height="120" as="geometry"/>
                </mxCell>
                <mxCell id="66" value="UI" style="text;html=1;align=center;verticalAlign=middle;whiteSpace=wrap;rounded=0;" vertex="1" parent="62">
                    <mxGeometry x="65" y="50" width="60" height="30" as="geometry"/>
                </mxCell>
                <mxCell id="68" value="" style="rounded=0;whiteSpace=wrap;html=1;container=1;" vertex="1" parent="1">
                    <mxGeometry x="-360" y="490" width="1700" height="1984.81" as="geometry"/>
                </mxCell>
                <mxCell id="69" value="Backend (Go Gin Server)" style="text;html=1;align=center;verticalAlign=middle;whiteSpace=wrap;rounded=0;" vertex="1" parent="68">
                    <mxGeometry x="581.6911764705882" width="388.48352941176466" height="201.5393521149915" as="geometry"/>
                </mxCell>
                <mxCell id="70" value="" style="whiteSpace=wrap;html=1;aspect=fixed;container=1;" vertex="1" parent="68">
                    <mxGeometry x="32.31617647058823" y="241.84722253798978" width="434.6341463414634" height="434.6341463414634" as="geometry"/>
                </mxCell>
                <mxCell id="75" value="" style="rounded=0;whiteSpace=wrap;html=1;container=1;" vertex="1" parent="70">
                    <mxGeometry x="26.34146341463415" y="52.6829268292683" width="381.95121951219517" height="92.19512195121952" as="geometry"/>
                </mxCell>
                <mxCell id="77" value="Auth Handlers" style="text;html=1;align=center;verticalAlign=middle;whiteSpace=wrap;rounded=0;" vertex="1" parent="75">
                    <mxGeometry x="92.19512195121952" y="26.34146341463415" width="184.39024390243904" height="39.51219512195122" as="geometry"/>
                </mxCell>
                <mxCell id="76" value="" style="rounded=0;whiteSpace=wrap;html=1;container=1;" vertex="1" parent="70">
                    <mxGeometry x="26.34146341463415" y="184.39024390243904" width="381.95121951219517" height="92.19512195121952" as="geometry"/>
                </mxCell>
                <mxCell id="78" value="Reminder Handlers" style="text;html=1;align=center;verticalAlign=middle;whiteSpace=wrap;rounded=0;" vertex="1" parent="76">
                    <mxGeometry x="108.99016629711753" y="31.346193951913683" width="163.96895787139692" height="29.502300190036408" as="geometry"/>
                </mxCell>
                <mxCell id="74" value="API Layer" style="text;html=1;align=center;verticalAlign=middle;whiteSpace=wrap;rounded=0;" vertex="1" parent="70">
                    <mxGeometry x="177.8048780487805" width="79.02439024390245" height="39.51219512195122" as="geometry"/>
                </mxCell>
                <mxCell id="79" value="" style="whiteSpace=wrap;html=1;aspect=fixed;container=1;" vertex="1" parent="68">
                    <mxGeometry x="524.9961764705882" y="241.84722253798967" width="434.6341463414634" height="434.6341463414634" as="geometry"/>
                </mxCell>
                <mxCell id="84" value="Auth Middleware" style="text;html=1;align=center;verticalAlign=middle;whiteSpace=wrap;rounded=0;" vertex="1" parent="79">
                    <mxGeometry x="177.8" width="112.2" height="40" as="geometry"/>
                </mxCell>
                <mxCell id="85" value="" style="whiteSpace=wrap;html=1;aspect=fixed;container=1;" vertex="1" parent="68">
                    <mxGeometry x="1030" y="241.84711455715498" width="420" height="420" as="geometry"/>
                </mxCell>
                <mxCell id="90" value="Router" style="text;html=1;align=center;verticalAlign=middle;whiteSpace=wrap;rounded=0;" vertex="1" parent="85">
                    <mxGeometry x="171.81346801346803" width="108.42222222222223" height="38.65319865319866" as="geometry"/>
                </mxCell>
                <mxCell id="100" value="" style="group" vertex="1" connectable="0" parent="68">
                    <mxGeometry x="110" y="1540" width="1470" height="280" as="geometry"/>
                </mxCell>
                <mxCell id="91" value="" style="whiteSpace=wrap;html=1;container=1;" vertex="1" parent="100">
                    <mxGeometry width="1470" height="280" as="geometry"/>
                </mxCell>
                <mxCell id="101" value="" style="rounded=0;whiteSpace=wrap;html=1;container=1;" vertex="1" parent="91">
                    <mxGeometry x="975" y="80" width="407.95" height="120" as="geometry"/>
                </mxCell>
                <mxCell id="102" value="MonogDB Database" style="text;html=1;align=center;verticalAlign=middle;whiteSpace=wrap;rounded=0;" vertex="1" parent="101">
                    <mxGeometry x="116.40894457070708" y="40.799808000903525" width="175.13005050505055" height="38.399819294968026" as="geometry"/>
                </mxCell>
                <mxCell id="92" value="" style="rounded=0;whiteSpace=wrap;html=1;container=1;" vertex="1" parent="100">
                    <mxGeometry x="75" y="90" width="400.96" height="120" as="geometry"/>
                </mxCell>
                <mxCell id="93" value="SQLite Databse&amp;nbsp;" style="text;html=1;align=center;verticalAlign=middle;whiteSpace=wrap;rounded=0;" vertex="1" parent="92">
                    <mxGeometry x="96.78344827586209" y="34.28571428571429" width="193.56689655172417" height="51.42857142857144" as="geometry"/>
                </mxCell>
                <mxCell id="94" value="" style="rounded=0;whiteSpace=wrap;html=1;container=1;" vertex="1" parent="100">
                    <mxGeometry x="532.05" y="90" width="407.95" height="120" as="geometry"/>
                </mxCell>
                <mxCell id="95" value="PostgresSQL Database" style="text;html=1;align=center;verticalAlign=middle;whiteSpace=wrap;rounded=0;" vertex="1" parent="94">
                    <mxGeometry x="116.40894457070708" y="40.799808000903525" width="175.13005050505055" height="38.399819294968026" as="geometry"/>
                </mxCell>
                <mxCell id="96" value="Database&amp;nbsp;" style="text;html=1;align=center;verticalAlign=middle;whiteSpace=wrap;rounded=0;" vertex="1" parent="100">
                    <mxGeometry x="620" width="267.27" height="50" as="geometry"/>
                </mxCell>
            </root>
        </mxGraphModel>
    </diagram>
</mxfile>
